<svg width="80" height="80" viewBox="0 0 80 80" fill="none" xmlns="http://www.w3.org/2000/svg">
<circle cx="40" cy="40" r="30" fill="white"/>
<path d="M41.1998 28.7996C41.1998 28.1369 40.6625 27.5996 39.9998 27.5996C39.3371 27.5996 38.7998 28.1369 38.7998 28.7996L38.7998 42.0163L35.1346 38.3511C34.666 37.8825 33.9062 37.8825 33.4376 38.3511C32.9689 38.8197 32.9689 39.5795 33.4376 40.0481L39.0944 45.705C39.5631 46.1736 40.3229 46.1736 40.7915 45.705L46.4483 40.0481C46.917 39.5795 46.917 38.8197 46.4483 38.3511C45.9797 37.8825 45.2199 37.8825 44.7513 38.3511L41.1998 41.9026V28.7996Z" fill="#005AD9"/>
<path d="M27.9998 41.9996C28.6625 41.9996 29.1998 42.5369 29.1998 43.1996V47.9996C29.1998 49.1042 30.0952 49.9996 31.1998 49.9996H48.7998C49.9044 49.9996 50.7998 49.1042 50.7998 47.9996V43.1996C50.7998 42.5369 51.3371 41.9996 51.9998 41.9996C52.6625 41.9996 53.1998 42.5369 53.1998 43.1996V47.9996C53.1998 50.4297 51.2299 52.3996 48.7998 52.3996H31.1998C28.7698 52.3996 26.7998 50.4297 26.7998 47.9996V43.1996C26.7998 42.5369 27.3371 41.9996 27.9998 41.9996Z" fill="#005AD9"/>
</svg>
