<svg xmlns="http://www.w3.org/2000/svg" viewBox="0 0 400 400" role="img" aria-label="white cloud app icon with vibrant text">
  <defs>
    <linearGradient id="blue-cyan-purple" x1="0%" y1="0%" x2="100%" y2="100%" gradientUnits="userSpaceOnUse">
      <stop offset="0%" stop-color="#EEF2FE" />
      <stop offset="50%" stop-color="#00A2FF" />
      <stop offset="100%" stop-color="#BB2BE2" />
    </linearGradient>
    <filter id="cloud-shadow" x="-20%" y="-20%" width="140%" height="140%">
      <feDropShadow dx="0" dy="8" stdDeviation="12" flood-color="#000000" flood-opacity="0.08" />
    </filter>
  </defs>
  <path
    d="M 344.889 238.823
       A 90 90 0 0 1 238.798 344.982
       A 90 90 0 0 1 93.909 306.159
       A 90 90 0 0 1 55.111 161.177
       A 90 90 0 0 1 161.202 55.018
       A 90 90 0 0 1 306.091 93.841
       A 90 90 0 0 1 344.889 238.823 Z"
    fill="#FFFFFF"
    filter="url(#cloud-shadow)"
  />
  <g fill="url(#blue-cyan-purple)" transform="translate(0, -20)">
    <path d="M 120 135 Q 200 92 280 135 Q 200 132 120 135 Z" />
    <path d="M 60 180 Q 200 102 340 180 Q 200 173 60 180 Z" />
    <polygon points="231.5,190 278.5,190 168.5,290 121.5,290" />
    <rect x="115" y="290" width="170" height="25" />
  </g>
</svg>
